<svg width="293" height="293" viewBox="0 0 293 293" fill="none" xmlns="http://www.w3.org/2000/svg">
<rect width="293" height="293" fill="white"/>
<path d="M154.444 183.588C175.876 185.375 207.017 164.386 217.6 159.823C228.183 155.26 236.187 163.055 227.235 170.013C223.973 172.561 225.414 181.573 217.411 189.9L148.413 204.616L154.444 183.588Z" fill="#211D1A"/>
<path d="M239.866 161.42C228.98 165.184 196.89 184.767 175.648 181.421C159.641 178.455 145.417 172.105 148.186 163.093C149.968 157.313 163.093 158.53 173.296 159.481C183.5 160.431 190.1 146.4 176.369 141.267C144.544 129.327 104.033 120.125 65.912 146.096L65.6465 192.258C65.6465 192.258 70.7293 198.19 92.54 207.886C147.579 232.336 217.904 208.761 251.587 174.652C260.349 165.755 250.753 157.617 239.866 161.42Z" fill="#98452E"/>
<path d="M66.3291 219.103H49.5633C43.1908 219.103 37.9941 213.894 37.9941 207.506V131.875C37.9941 125.487 43.1908 120.277 49.5633 120.277H65.267C72.2464 120.277 77.8982 125.943 77.8982 132.939V207.506C77.8982 213.894 72.7016 219.103 66.3291 219.103Z" fill="#FE4F20"/>
<path d="M77.8601 142.522H74.0669V196.897H77.8601V142.522Z" fill="#211D1A"/>
<path d="M233.418 79.8188C225.642 72.0238 213.011 72.0238 205.235 79.8188L203.3 81.7581L201.366 79.8188C193.59 72.0238 180.959 72.0238 173.183 79.8188C165.407 87.6139 165.407 100.238 173.183 108.033L197.724 132.559C200.607 136.095 205.993 136.095 208.876 132.559L233.418 108.033C241.194 100.238 241.194 87.6139 233.418 79.8188Z" fill="#FE4F20"/>
</svg>
